<svg xmlns="http://www.w3.org/2000/svg" viewBox="0 0 25.89 5.78"><defs><style>.cls-1{fill:#CF0C39;}.cls-2{fill:none;stroke:#000000;stroke-miterlimit:10;stroke-width:0.1px;}</style></defs><title>Alumina</title><g id="Layer_2" data-name="Layer 2"><g id="Layer_1-2" data-name="Layer 1"><path class="cls-1" d="M5.17,5.71V1.28h.75V5.71Z"/><path class="cls-1" d="M9.22,2.43H10V4.06a1.61,1.61,0,1,1-3.21,0V2.43H7.5V4.17a.86.86,0,1,0,1.72,0Z"/><path class="cls-1" d="M16.08,4.08V5.71h-.75V4c0-.55-.32-.94-.77-.94s-.77.39-.77.94V5.71h-.74V4c0-.55-.32-.94-.77-.94s-.77.39-.77.94V5.71h-.75V4.08a1.56,1.56,0,0,1,1.52-1.72,1.35,1.35,0,0,1,1.14.58,1.34,1.34,0,0,1,1.14-.58A1.56,1.56,0,0,1,16.08,4.08Z"/><path class="cls-1" d="M16.86,1.69a.42.42,0,0,1,.43-.42.41.41,0,0,1,.41.42.41.41,0,0,1-.41.41A.42.42,0,0,1,16.86,1.69Zm.05,4V2.43h.74V5.71Z"/><path class="cls-1" d="M19.23,5.71h-.74V4.08a1.61,1.61,0,1,1,3.21,0V5.71H21V4a.86.86,0,1,0-1.72,0Z"/><path class="cls-1" d="M25.89,4.14V5.71h-.75V5.37a1.61,1.61,0,0,1-1.1.4,1.66,1.66,0,0,1-1.72-1.69,1.79,1.79,0,0,1,3.57,0Zm-.76-.06a1,1,0,1,0-2.06,0,1,1,0,0,0,2.06,0Z"/><polygon class="cls-1" points="2.87 1.51 2.87 1.51 2.68 1.05 2.49 0.6 2.29 1.05 2.1 1.51 2.1 1.51 0.28 5.71 1.1 5.71 2.48 2.42 2.5 2.42 3.88 5.71 4.7 5.71 2.87 1.51"/><path class="cls-2" d="M5,5.24V.81h.75V5.24Z"/><path class="cls-2" d="M9,2h.75V3.59a1.61,1.61,0,1,1-3.21,0V2h.74V3.7a.86.86,0,0,0,.87.93A.85.85,0,0,0,9,3.7Z"/><path class="cls-2" d="M15.88,3.61V5.24h-.75V3.5a.84.84,0,0,0-.77-.94c-.45,0-.77.39-.77.94V5.24h-.75V3.5c0-.55-.32-.94-.76-.94s-.77.39-.77.94V5.24h-.75V3.61a1.56,1.56,0,0,1,1.52-1.72,1.36,1.36,0,0,1,1.14.58,1.34,1.34,0,0,1,1.14-.58A1.56,1.56,0,0,1,15.88,3.61Z"/><path class="cls-2" d="M16.66,1.22A.42.42,0,0,1,17.09.8a.41.41,0,0,1,.41.42.41.41,0,0,1-.41.41A.42.42,0,0,1,16.66,1.22Zm.05,4V2h.74V5.24Z"/><path class="cls-2" d="M19,5.24h-.74V3.61a1.6,1.6,0,1,1,3.2,0V5.24h-.74V3.5A.86.86,0,1,0,19,3.5Z"/><path class="cls-2" d="M25.69,3.67V5.24h-.75V4.9a1.63,1.63,0,0,1-1.1.4,1.67,1.67,0,0,1-1.73-1.69,1.79,1.79,0,0,1,3.58.05Zm-.76-.06a1,1,0,0,0-1-1,1,1,0,0,0-1,1,1,1,0,0,0,2.06,0Z"/><polygon class="cls-2" points="2.67 1.04 2.67 1.04 2.48 0.58 2.28 0.13 2.09 0.58 1.9 1.04 1.9 1.04 0.08 5.24 0.9 5.24 2.28 1.95 2.3 1.95 3.67 5.24 4.5 5.24 2.67 1.04"/></g></g></svg>